<svg width="41" height="65" viewBox="0 0 41 65" fill="none" xmlns="http://www.w3.org/2000/svg">
<g clip-path="url(#clip0_1852_986)">
<path d="M41 20.569C41 37.3495 27.1612 41.7932 20.4996 65.0007C13.7459 41.5143 0 37.3487 0 20.569C0 9.20877 9.17807 0 20.5004 0C31.8227 0 41.0007 9.20877 41.0007 20.569H41Z" fill="url(#paint0_linear_1852_986)"/>
<path d="M20.5008 37.1279C16.0924 37.1279 11.948 35.4057 8.8311 32.2777C5.71421 29.1504 3.99707 24.9921 3.99707 20.569C3.99707 16.1458 5.71348 11.9876 8.8311 8.86024C11.948 5.73292 16.0924 4.01004 20.5008 4.01004C24.9092 4.01004 29.0536 5.73219 32.1704 8.86024C35.2873 11.9876 37.0045 16.1458 37.0045 20.569C37.0045 24.9921 35.2881 29.1504 32.1704 32.2777C29.0536 35.405 24.9092 37.1279 20.5008 37.1279Z" fill="url(#paint1_linear_1852_986)"/>
<path d="M17.3586 11.3037L17.4083 11.1232C17.4149 11.0997 17.4361 11.0835 17.4595 11.0835H18.0153L17.6496 9.77451H17.605L17.0492 11.7623C17.039 11.8004 17.0214 11.8246 16.9871 11.8246H16.7523C16.7216 11.8246 16.7004 11.8004 16.7106 11.7623L17.3593 9.45605C17.3695 9.42156 17.39 9.40028 17.4215 9.40028H17.8325C17.8632 9.40028 17.8844 9.42083 17.8946 9.45605L18.5433 11.7623C18.5535 11.8004 18.5367 11.8246 18.5016 11.8246H18.2669C18.2325 11.8246 18.2149 11.8004 18.2047 11.7623L18.0943 11.3712H17.4098C17.3747 11.3712 17.3491 11.3374 17.3586 11.3029V11.3037Z" fill="white"/>
<path d="M19.5823 11.1503V11.777C19.5823 11.8034 19.5603 11.8254 19.534 11.8254H19.2992C19.2729 11.8254 19.251 11.8034 19.251 11.777V9.44945C19.251 9.42303 19.2729 9.40102 19.2992 9.40102H20.1761C20.6763 9.40102 20.8869 9.64683 20.8869 10.0974V10.454C20.8869 10.7585 20.7904 10.9698 20.5725 11.074L20.876 11.7527C20.8964 11.7975 20.876 11.8254 20.8277 11.8254H20.6134C20.5827 11.8254 20.5549 11.8114 20.541 11.7806L20.2617 11.1466C20.2339 11.1503 20.2032 11.1503 20.1754 11.1503H19.8126C19.7856 11.1503 19.7629 11.1283 19.7629 11.1004V10.8986C19.7629 10.8715 19.7848 10.8487 19.8126 10.8487H20.1585C20.424 10.8487 20.5557 10.7416 20.5557 10.4466V10.1069C20.5557 9.81266 20.4247 9.70186 20.1585 9.70186H19.5823V10.848" fill="white"/>
<path d="M21.6533 11.1393V10.0864C21.6533 9.63949 21.8742 9.38341 22.3715 9.38341H22.6545C23.1547 9.38341 23.3653 9.62922 23.3653 10.0761V10.0937C23.3653 10.1216 23.3478 10.1385 23.3207 10.1385H23.0794C23.0516 10.1385 23.0348 10.1208 23.0348 10.0937C23.0348 9.78918 22.89 9.68499 22.6311 9.68499H22.3898C22.1243 9.68499 21.9861 9.80239 21.9861 10.0974V11.1298C21.9861 11.4277 22.1243 11.5422 22.3898 11.5422H22.6311C22.8966 11.5422 23.0348 11.4277 23.0348 11.1298V10.7556H22.555C22.5207 10.7556 22.5031 10.7416 22.5031 10.7071V10.5134C22.5031 10.4789 22.5207 10.465 22.555 10.465H23.3039C23.3419 10.465 23.3661 10.4855 23.3661 10.5274V11.14C23.3661 11.5869 23.1452 11.843 22.6479 11.843H22.3715C21.8742 11.843 21.6533 11.5869 21.6533 11.14V11.1393Z" fill="white"/>
<path d="M15.3547 9.38405H15.0541C14.5568 9.38405 14.3359 9.64013 14.3359 10.087V11.14C14.3359 11.5032 14.4822 11.7402 14.8033 11.8165C14.842 11.8253 14.8786 11.7952 14.8786 11.7556V11.5553C14.8786 11.5318 14.8647 11.5098 14.8435 11.4995C14.7257 11.443 14.6672 11.3263 14.6672 11.1304V10.098C14.6672 9.80376 14.8018 9.68563 15.0709 9.68563H15.3364C15.6019 9.68563 15.7401 9.80303 15.7401 10.098V11.1304C15.7401 11.3263 15.6801 11.4423 15.5631 11.4995C15.5419 11.5098 15.5287 11.5318 15.5287 11.5553V11.7563C15.5287 11.7959 15.5653 11.8268 15.604 11.8172C15.9258 11.7409 16.0714 11.5039 16.0714 11.1407V10.0877C16.0714 9.64087 15.8505 9.38478 15.3532 9.38478L15.3547 9.38405Z" fill="white"/>
<path d="M15.298 12.1783H15.1078C15.0735 12.1783 15.0596 12.1607 15.0596 12.1299V11.2435C15.0596 11.2127 15.0735 11.1951 15.1078 11.1951H15.298C15.3324 11.1951 15.3499 11.2127 15.3499 11.2435V12.1299C15.3499 12.1607 15.3324 12.1783 15.298 12.1783Z" fill="white"/>
<path d="M25.1318 9.42304V9.64537C25.1318 9.66738 25.1494 9.68499 25.1713 9.68572C25.4192 9.69306 25.5801 9.77671 25.5787 10.0974V11.1298C25.5874 11.4849 25.3498 11.5473 25.1728 11.5436C25.1501 11.5436 25.1326 11.5612 25.1326 11.5832V11.8034C25.1326 11.8254 25.1501 11.8437 25.1721 11.8437C25.5538 11.8481 25.9107 11.7131 25.9107 11.1401V10.0871C25.9253 9.55878 25.6043 9.38121 25.1721 9.38341C25.1501 9.38341 25.1326 9.40176 25.1326 9.42377L25.1318 9.42304Z" fill="white"/>
<path d="M24.9512 9.42304V9.64537C24.9512 9.66738 24.9337 9.68499 24.9117 9.68572C24.6638 9.69306 24.5029 9.77671 24.5044 10.0974V11.1298C24.4956 11.4849 24.7333 11.5473 24.9103 11.5436C24.9329 11.5436 24.9505 11.5612 24.9505 11.5832V11.8034C24.9505 11.8254 24.9329 11.8437 24.911 11.8437C24.5292 11.8481 24.1724 11.7131 24.1724 11.1401V10.0871C24.1577 9.55878 24.4788 9.38121 24.911 9.38341C24.9329 9.38341 24.9505 9.40176 24.9505 9.42377L24.9512 9.42304Z" fill="white"/>
<path d="M14.3359 14.2985V13.3417C14.3359 12.9359 14.5371 12.7026 14.9883 12.7026H15.2457C15.7006 12.7026 15.8922 12.9264 15.8922 13.3321V13.3476C15.8922 13.3725 15.8768 13.3886 15.8512 13.3886H15.6318C15.607 13.3886 15.5909 13.3732 15.5909 13.3476C15.5909 13.0709 15.4592 12.9763 15.2238 12.9763H15.0044C14.763 12.9763 14.6372 13.0834 14.6372 13.3505V14.2882C14.6372 14.559 14.763 14.6625 15.0044 14.6625H15.2238C15.4592 14.6625 15.5909 14.5715 15.5909 14.3095C15.5909 14.2846 15.6062 14.2684 15.6318 14.2684H15.8512C15.8761 14.2684 15.8922 14.2838 15.8922 14.3095V14.3249C15.8922 14.7153 15.7006 14.9354 15.2457 14.9354H14.9883C14.5363 14.9354 14.3359 14.7028 14.3359 14.2963V14.2985Z" fill="white"/>
<path d="M20.0984 12.7617V12.9473C20.0984 12.9789 20.0859 12.9913 20.0545 12.9913H19.0884V13.684H19.9792C20.0106 13.684 20.023 13.6965 20.023 13.728V13.9042C20.023 13.9357 20.0106 13.9482 19.9792 13.9482H19.0884V14.8771C19.0884 14.9087 19.076 14.9212 19.0445 14.9212H18.831C18.7995 14.9212 18.7871 14.9087 18.7871 14.8771V12.7617C18.7871 12.7301 18.7995 12.7177 18.831 12.7177H20.0545C20.0859 12.7177 20.0984 12.7301 20.0984 12.7617Z" fill="white"/>
<path d="M22.0271 12.7617V12.9473C22.0271 12.9789 22.0146 12.9913 21.9832 12.9913H21.0171V13.684H21.9079C21.9393 13.684 21.9518 13.6965 21.9518 13.728V13.9042C21.9518 13.9357 21.9393 13.9482 21.9079 13.9482H21.0171V14.8771C21.0171 14.9087 21.0047 14.9212 20.9732 14.9212H20.7597C20.7283 14.9212 20.7158 14.9087 20.7158 14.8771V12.7617C20.7158 12.7301 20.7283 12.7177 20.7597 12.7177H21.9832C22.0146 12.7177 22.0271 12.7301 22.0271 12.7617Z" fill="white"/>
<path d="M22.6445 14.8771V12.7617C22.6445 12.7301 22.6599 12.7177 22.6913 12.7177H23.9119C23.9434 12.7177 23.9558 12.7301 23.9558 12.7617V12.9473C23.9558 12.9789 23.9434 12.9913 23.9119 12.9913H22.9458V13.684H23.8307C23.8622 13.684 23.8775 13.6965 23.8775 13.728V13.9042C23.8775 13.9357 23.8622 13.9482 23.8307 13.9482H22.9458V14.6467H23.9214C23.9529 14.6467 23.9682 14.6592 23.9682 14.6908V14.8764C23.9682 14.9079 23.9529 14.9204 23.9214 14.9204H22.6913C22.6599 14.9204 22.6445 14.9079 22.6445 14.8764V14.8771Z" fill="white"/>
<path d="M24.5859 14.8771V12.7617C24.5859 12.7301 24.6013 12.7177 24.6327 12.7177H25.8533C25.8848 12.7177 25.8972 12.7301 25.8972 12.7617V12.9473C25.8972 12.9789 25.8848 12.9913 25.8533 12.9913H24.8872V13.684H25.7721C25.8036 13.684 25.8189 13.6965 25.8189 13.728V13.9042C25.8189 13.9357 25.8036 13.9482 25.7721 13.9482H24.8872V14.6467H25.8628C25.8943 14.6467 25.9096 14.6592 25.9096 14.6908V14.8764C25.9096 14.9079 25.8943 14.9204 25.8628 14.9204H24.6327C24.6013 14.9204 24.5859 14.9079 24.5859 14.8764V14.8771Z" fill="white"/>
<path d="M17.4082 12.7367V12.9385C17.4082 12.9583 17.4243 12.9745 17.444 12.9752C17.6693 12.9818 17.8155 13.0581 17.8141 13.3494V14.2872C17.8221 14.61 17.6057 14.6665 17.4448 14.6636C17.4243 14.6636 17.4082 14.6797 17.4082 14.7003V14.9006C17.4082 14.9204 17.4243 14.9373 17.444 14.9373C17.7907 14.941 18.1154 14.8184 18.1154 14.2974V13.3406C18.1286 12.8607 17.8368 12.6993 17.444 12.7008C17.4243 12.7008 17.4082 12.7176 17.4082 12.7375V12.7367Z" fill="white"/>
<path d="M17.2447 12.7367V12.9385C17.2447 12.9583 17.2286 12.9745 17.2089 12.9752C16.9836 12.9818 16.8374 13.0581 16.8388 13.3494V14.2872C16.8308 14.61 17.0473 14.6665 17.2082 14.6636C17.2286 14.6636 17.2447 14.6797 17.2447 14.7003V14.9006C17.2447 14.9204 17.2286 14.9373 17.2089 14.9373C16.8622 14.941 16.5375 14.8184 16.5375 14.2974V13.3406C16.5244 12.8607 16.8162 12.6993 17.2089 12.7008C17.2286 12.7008 17.2447 12.7176 17.2447 12.7375V12.7367Z" fill="white"/>
<path d="M17.9476 29.2685H17.9293H15.0742V29.6611H17.9476V29.2685Z" fill="#FAA919"/>
<path d="M21.9469 20.2175V19.8374V19.8344H18.3086V19.8374H18.2969V23.3455H18.3152H18.6874V20.2175H21.9469Z" fill="#FAA919"/>
<path d="M26.2936 16.5927V19.4661V19.469V19.8344V19.8374V28.9001V29.2685H25.9264H22.3137H22.2954V32.7774V33.1457H21.9283H19.0732V33.5375H22.686V29.6611H26.6848V20.2175V16.5985V16.5927H26.2936Z" fill="#FAA919"/>
<path d="M17.9287 28.9001V19.8374H14.316V28.9001H17.9287Z" fill="white"/>
<path d="M25.9268 28.9001V19.8374H22.314V28.9001H25.9268Z" fill="white"/>
<path d="M21.9268 32.7774V23.7146H18.314V32.7774H21.9268Z" fill="white"/>
<path d="M25.9259 15.8413H14.3154V19.4661H25.9259V15.8413Z" fill="white"/>
</g>
<defs>
<linearGradient id="paint0_linear_1852_986" x1="20.5004" y1="1.79479" x2="20.5004" y2="58.3073" gradientUnits="userSpaceOnUse">
<stop stop-color="#37567A"/>
<stop offset="1"/>
</linearGradient>
<linearGradient id="paint1_linear_1852_986" x1="20.5008" y1="4.92431" x2="20.5008" y2="33.7181" gradientUnits="userSpaceOnUse">
<stop/>
<stop offset="1" stop-color="#37567A"/>
</linearGradient>
<clipPath id="clip0_1852_986">
<rect width="41" height="65" fill="white"/>
</clipPath>
</defs>
</svg>
