<svg width="24" height="24" viewBox="0 0 24 24" fill="none" xmlns="http://www.w3.org/2000/svg">
<path d="M5.37997 7.93994H0.469971V23.7899H5.37997V7.93994Z" fill="#919191"/>
<path d="M2.9 5.86C4.5 5.86 5.8 4.55 5.8 2.93C5.8 1.31 4.5 0 2.9 0C1.3 0 0 1.31 0 2.93C0 4.55 1.3 5.86 2.9 5.86Z" fill="#919191"/>
<path d="M13.23 15.47C13.23 13.24 14.26 11.91 16.22 11.91C18.02 11.91 18.89 13.18 18.89 15.47V23.79H23.77V13.75C23.77 9.49995 21.36 7.44995 18 7.44995C14.64 7.44995 13.22 10.07 13.22 10.07V7.92995H8.51001V23.78H13.22V15.46L13.23 15.47Z" fill="#919191"/>
</svg>
