<svg width="28" height="28" viewBox="0 0 28 28" fill="none" xmlns="http://www.w3.org/2000/svg">
<path d="M13.86 0C6.21 0 0 6.21 0 13.86C0 21.51 6.21 27.72 13.86 27.72C21.51 27.72 27.72 21.51 27.72 13.86C27.72 6.21 21.52 0 13.86 0ZM20.24 20.03C19.96 20.45 19.48 20.58 19.06 20.31C15.8 18.3 11.71 17.88 6.86 18.99C6.37 19.13 5.96 18.78 5.82 18.37C5.68 17.88 6.03 17.47 6.44 17.33C11.71 16.15 16.28 16.64 19.89 18.85C20.38 19.06 20.44 19.61 20.24 20.03ZM21.9 16.22C21.55 16.71 20.93 16.91 20.44 16.57C16.7 14.28 11.01 13.59 6.65 14.98C6.1 15.12 5.47 14.84 5.33 14.29C5.19 13.74 5.47 13.11 6.02 12.97C11.08 11.45 17.32 12.21 21.62 14.84C22.04 15.05 22.24 15.74 21.9 16.23V16.22ZM22.04 12.34C17.6 9.71 10.19 9.43 5.96 10.75C5.27 10.96 4.57 10.54 4.37 9.92C4.16 9.23 4.58 8.53 5.2 8.33C10.12 6.87 18.23 7.15 23.36 10.2C23.98 10.55 24.19 11.38 23.85 12C23.5 12.49 22.67 12.69 22.05 12.35L22.04 12.34Z" fill="#919191"/>
</svg>
