<svg width="22" height="26" viewBox="0 0 22 26" fill="none" xmlns="http://www.w3.org/2000/svg">
<path d="M22 10.5211C21.7934 10.5427 21.5797 10.5499 21.3659 10.5571C19.0505 10.5571 16.8918 9.37528 15.6237 7.41519V18.102C15.6237 22.469 12.1256 26 7.81541 26C3.50518 26 0 22.469 0 18.102C0 13.735 3.49806 10.204 7.80829 10.204C7.97215 10.204 8.12889 10.2184 8.29275 10.2256V14.117C8.13601 14.0953 7.97215 14.0665 7.80829 14.0665C5.60687 14.0665 3.81865 15.8753 3.81865 18.102C3.81865 20.3287 5.60687 22.1375 7.80829 22.1375C10.0097 22.1375 11.9547 20.3792 11.9547 18.1524L11.9903 0H15.6736C16.0227 3.34368 18.6801 5.95233 21.9929 6.19734V10.5211" fill="#919191"/>
</svg>
