<svg width="38" height="27" viewBox="0 0 38 27" fill="none" xmlns="http://www.w3.org/2000/svg">
<path d="M37.17 4.18C36.73 2.54 35.45 1.24 33.81 0.799999C30.85 -7.7486e-07 18.98 0 18.98 0C18.98 0 7.11001 -7.7486e-07 4.15001 0.799999C2.52001 1.24 1.23001 2.53 0.790009 4.18C8.52346e-06 7.16 0 13.38 0 13.38C0 13.38 8.52346e-06 19.6 0.790009 22.58C1.23001 24.22 2.51001 25.52 4.15001 25.96C7.11001 26.76 18.98 26.76 18.98 26.76C18.98 26.76 30.85 26.76 33.81 25.96C35.44 25.52 36.73 24.23 37.17 22.58C37.96 19.6 37.96 13.38 37.96 13.38C37.96 13.38 37.96 7.16 37.17 4.18Z" fill="#919191"/>
<path d="M15.1 19.01V7.72998L25.02 13.37L15.1 19.01Z" fill="white"/>
</svg>
